<svg xmlns="http://www.w3.org/2000/svg" xmlns:xlink="http://www.w3.org/1999/xlink" xmlns:lucid="lucid" width="1349.52" height="494.59"><g transform="translate(-118.16666666666669 -0.9333826374746934)" lucid:page-tab-id="0_0"><path d="M0 0h1500v500H0z" fill="#fff"/><path d="M320 193.26c0 10.54-40.6 19.1-90.67 19.1s-90.66-8.56-90.66-19.1V40.53c0-10.55 40.6-19.1 90.66-19.1 50.08 0 90.67 8.55 90.67 19.1z" stroke="#3a414a" fill="#fff"/><path d="M320 40.52c0 10.55-40.6 19.1-90.67 19.1s-90.66-8.55-90.66-19.1" stroke="#3a414a" fill="none"/><use xlink:href="#a" transform="matrix(1,0,0,1,143.66666666666669,64.61671597080803) translate(33.65432098765433 35.65277777777778)"/><use xlink:href="#b" transform="matrix(1,0,0,1,143.66666666666669,64.61671597080803) translate(92.79012345679013 35.65277777777778)"/><use xlink:href="#c" transform="matrix(1,0,0,1,143.66666666666669,64.61671597080803) translate(25.01234567901234 62.31944444444445)"/><use xlink:href="#d" transform="matrix(1,0,0,1,143.66666666666669,64.61671597080803) translate(38.53086419753086 62.31944444444445)"/><use xlink:href="#e" transform="matrix(1,0,0,1,143.66666666666669,64.61671597080803) translate(73.03703703703704 62.31944444444445)"/><use xlink:href="#f" transform="matrix(1,0,0,1,143.66666666666669,64.61671597080803) translate(53.87037037037037 88.98611111111111)"/><use xlink:href="#g" transform="matrix(1,0,0,1,143.66666666666669,64.61671597080803) translate(67.38888888888889 88.98611111111111)"/><use xlink:href="#h" transform="matrix(1,0,0,1,143.66666666666669,64.61671597080803) translate(86.64814814814815 88.98611111111111)"/><use xlink:href="#i" transform="matrix(1,0,0,1,143.66666666666669,64.61671597080803) translate(105.78395061728395 88.98611111111111)"/><use xlink:href="#j" transform="matrix(1,0,0,1,143.66666666666669,64.61671597080803) translate(86 115.6527777777778)"/><path d="M320 455.4c0 10.55-40.6 19.1-90.67 19.1s-90.66-8.55-90.66-19.1V302.67c0-10.54 40.6-19.1 90.66-19.1 50.08 0 90.67 8.56 90.67 19.1z" stroke="#3a414a" fill="#fff"/><path d="M320 302.67c0 10.54-40.6 19.1-90.67 19.1s-90.66-8.56-90.66-19.1" stroke="#3a414a" fill="none"/><use xlink:href="#k" transform="matrix(1,0,0,1,143.6666666666667,326.76174980603196) translate(13.901234567901241 35.65277777777778)"/><use xlink:href="#b" transform="matrix(1,0,0,1,143.6666666666667,326.76174980603196) translate(112.54320987654322 35.65277777777778)"/><use xlink:href="#c" transform="matrix(1,0,0,1,143.6666666666667,326.76174980603196) translate(4.641975308641975 62.31944444444445)"/><use xlink:href="#d" transform="matrix(1,0,0,1,143.6666666666667,326.76174980603196) translate(18.160493827160494 62.31944444444445)"/><use xlink:href="#l" transform="matrix(1,0,0,1,143.6666666666667,326.76174980603196) translate(52.666666666666664 62.31944444444445)"/><use xlink:href="#f" transform="matrix(1,0,0,1,143.6666666666667,326.76174980603196) translate(53.87037037037037 88.98611111111111)"/><use xlink:href="#g" transform="matrix(1,0,0,1,143.6666666666667,326.76174980603196) translate(67.38888888888889 88.98611111111111)"/><use xlink:href="#h" transform="matrix(1,0,0,1,143.6666666666667,326.76174980603196) translate(86.64814814814815 88.98611111111111)"/><use xlink:href="#i" transform="matrix(1,0,0,1,143.6666666666667,326.76174980603196) translate(105.78395061728395 88.98611111111111)"/><use xlink:href="#j" transform="matrix(1,0,0,1,143.6666666666667,326.76174980603196) translate(86 115.6527777777778)"/><path d="M320.75 116.9h39.06a.04.04 0 0 1 .06.04.04.04 0 0 0 .04.04h24" stroke="#3a414a" stroke-width=".5" fill="none"/><path d="M320.76 117.14h-.26v-.5h.26z" stroke="#3a414a" stroke-width=".05" fill="#3a414a"/><path d="M398.4 116.98l-14.26 4.63v-9.26z" stroke="#3a414a" stroke-width=".5" fill="#3a414a"/><path d="M320.75 379.04h39.04a.07.07 0 0 0 .06-.07.07.07 0 0 1 .06-.07h23.97" stroke="#3a414a" stroke-width=".5" fill="none"/><path d="M320.76 379.3h-.26v-.5h.26z" stroke="#3a414a" stroke-width=".05" fill="#3a414a"/><path d="M398.4 378.9l-14.26 4.64v-9.27z" stroke="#3a414a" stroke-width=".5" fill="#3a414a"/><path d="M399.2 30.1a6 6 0 0 1 6-6H595a6 6 0 0 1 6 6v149.5a6 6 0 0 1-6 6H405.2a6 6 0 0 1-6-6z" fill="#fff"/><g><use xlink:href="#m" transform="matrix(1,0,0,1,404.2116647512488,29.108037508485282) translate(90.52160493827161 1.777777777777778)"/></g><path d="M399.2 63.07a6 6 0 0 1 6-6H595a6 6 0 0 1 6 6v143.28a6 6 0 0 1-6 6H405.2a6 6 0 0 1-6-6z" fill="#fff"/><g><use xlink:href="#n" transform="matrix(1,0,0,1,404.2116647512488,62.07374613277064) translate(10.722222222222221 70.21527777777777)"/><use xlink:href="#o" transform="matrix(1,0,0,1,404.2116647512488,62.07374613277064) translate(22.22222222222222 70.21527777777777)"/><use xlink:href="#p" transform="matrix(1,0,0,1,404.2116647512488,62.07374613277064) translate(34.80246913580247 70.21527777777777)"/><use xlink:href="#q" transform="matrix(1,0,0,1,404.2116647512488,62.07374613277064) translate(37.27160493827161 70.21527777777777)"/><use xlink:href="#r" transform="matrix(1,0,0,1,404.2116647512488,62.07374613277064) translate(40.97530864197531 70.21527777777777)"/><use xlink:href="#s" transform="matrix(1,0,0,1,404.2116647512488,62.07374613277064) translate(45.98765432098766 70.21527777777777)"/><use xlink:href="#n" transform="matrix(1,0,0,1,404.2116647512488,62.07374613277064) translate(10.722222222222221 72.88194444444444)"/><use xlink:href="#t" transform="matrix(1,0,0,1,404.2116647512488,62.07374613277064) translate(22.22222222222222 72.88194444444444)"/><use xlink:href="#u" transform="matrix(1,0,0,1,404.2116647512488,62.07374613277064) translate(26.049382716049383 72.88194444444444)"/></g><path d="M399.2 289.58a6 6 0 0 1 6-6H595a6 6 0 0 1 6 6v149.5a6 6 0 0 1-6 6H405.2a6 6 0 0 1-6-6z" fill="#fff"/><g><use xlink:href="#m" transform="matrix(1,0,0,1,404.2116647512488,288.5784164726986) translate(90.52160493827161 1.777777777777778)"/></g><path d="M399.2 321.52a6 6 0 0 1 6-6H595a6 6 0 0 1 6 6v148a6 6 0 0 1-6 6H405.2a6 6 0 0 1-6-6z" fill="#fff"/><g><use xlink:href="#n" transform="matrix(1,0,0,1,404.2116647512487,320.5196041181746) translate(10.722222222222221 72.09027777777777)"/><use xlink:href="#o" transform="matrix(1,0,0,1,404.2116647512487,320.5196041181746) translate(22.22222222222222 72.09027777777777)"/><use xlink:href="#p" transform="matrix(1,0,0,1,404.2116647512487,320.5196041181746) translate(34.80246913580247 72.09027777777777)"/><use xlink:href="#q" transform="matrix(1,0,0,1,404.2116647512487,320.5196041181746) translate(37.27160493827161 72.09027777777777)"/><use xlink:href="#v" transform="matrix(1,0,0,1,404.2116647512487,320.5196041181746) translate(40.97530864197531 72.09027777777777)"/><use xlink:href="#s" transform="matrix(1,0,0,1,404.2116647512487,320.5196041181746) translate(53.67901234567901 72.09027777777777)"/><use xlink:href="#n" transform="matrix(1,0,0,1,404.2116647512487,320.5196041181746) translate(10.722222222222221 74.75694444444444)"/><use xlink:href="#t" transform="matrix(1,0,0,1,404.2116647512487,320.5196041181746) translate(22.22222222222222 74.75694444444444)"/><use xlink:href="#w" transform="matrix(1,0,0,1,404.2116647512487,320.5196041181746) translate(26.049382716049383 74.75694444444444)"/></g><path d="M936.64 167.07a6 6 0 0 1 6-6h189.8a6 6 0 0 1 6 6v149.5a6 6 0 0 1-6 6h-189.8a6 6 0 0 1-6-6z" fill="#fff"/><g><use xlink:href="#x" transform="matrix(1,0,0,1,941.6453074629297,166.06570138081236) translate(90.14814814814815 1.777777777777778)"/><use xlink:href="#y" transform="matrix(1,0,0,1,941.6453074629297,166.06570138081236) translate(97.2962962962963 1.777777777777778)"/><use xlink:href="#z" transform="matrix(1,0,0,1,941.6453074629297,166.06570138081236) translate(98.64814814814815 1.777777777777778)"/></g><path d="M936.64 200.03a6 6 0 0 1 6-6h189.8a6 6 0 0 1 6 6V343.3a6 6 0 0 1-6 6h-189.8a6 6 0 0 1-6-6z" fill="#fff"/><g><use xlink:href="#n" transform="matrix(1,0,0,1,941.6453074629297,199.0314100050977) translate(10.722222222222221 70.21527777777777)"/><use xlink:href="#A" transform="matrix(1,0,0,1,941.6453074629297,199.0314100050977) translate(22.22222222222222 70.21527777777777)"/><use xlink:href="#B" transform="matrix(1,0,0,1,941.6453074629297,199.0314100050977) translate(29.123456790123456 70.21527777777777)"/><use xlink:href="#C" transform="matrix(1,0,0,1,941.6453074629297,199.0314100050977) translate(32.20987654320987 70.21527777777777)"/></g><path d="M1447.7 301.85c0 6.63-40.6 12-90.68 12-50.07 0-90.67-5.37-90.67-12v-96c0-6.63 40.6-12 90.67-12s90.67 5.37 90.67 12z" fill="#fff"/><path d="M1447.7 205.85c0 6.63-40.6 12-90.68 12-50.07 0-90.67-5.37-90.67-12" fill="none"/><g><use xlink:href="#D" transform="matrix(1,0,0,1,1271.3532811803273,222.84937984313507) translate(78.41975308641975 39.40277777777778)"/><use xlink:href="#E" transform="matrix(1,0,0,1,1271.3532811803273,222.84937984313507) translate(89.02469135802468 39.40277777777778)"/><use xlink:href="#F" transform="matrix(1,0,0,1,1271.3532811803273,222.84937984313507) translate(77.55555555555556 42.06944444444444)"/><use xlink:href="#G" transform="matrix(1,0,0,1,1271.3532811803273,222.84937984313507) translate(78.9074074074074 42.06944444444444)"/><use xlink:href="#H" transform="matrix(1,0,0,1,1271.3532811803273,222.84937984313507) translate(82.35802469135803 42.06944444444444)"/><use xlink:href="#I" transform="matrix(1,0,0,1,1271.3532811803273,222.84937984313507) translate(82.78703703703704 44.73611111111111)"/><use xlink:href="#J" transform="matrix(1,0,0,1,1271.3532811803273,222.84937984313507) translate(84.13888888888889 44.73611111111111)"/><use xlink:href="#K" transform="matrix(1,0,0,1,1271.3532811803273,222.84937984313507) translate(86.06481481481481 44.73611111111111)"/><use xlink:href="#L" transform="matrix(1,0,0,1,1271.3532811803273,222.84937984313507) translate(87.97839506172839 44.73611111111111)"/><use xlink:href="#M" transform="matrix(1,0,0,1,1271.3532811803273,222.84937984313507) translate(86 47.40277777777777)"/></g><defs><path fill="#3a414a" d="M140-251c80 0 125 45 125 126S219 4 139 4C58 4 15-44 15-125s44-126 125-126zm-1 214c52 0 73-35 73-88 0-50-21-86-72-86-52 0-73 35-73 86s22 88 72 88" id="N"/><path fill="#3a414a" d="M121-226c-27-7-43 5-38 36h38v33H83V0H34v-157H6v-33h28c-9-59 32-81 87-68v32" id="O"/><path fill="#3a414a" d="M185-48c-13 30-37 53-82 52C43 2 14-33 14-96s30-98 90-98c62 0 83 45 84 108H66c0 31 8 55 39 56 18 0 30-7 34-22zm-45-69c5-46-57-63-70-21-2 6-4 13-4 21h74" id="P"/><path fill="#3a414a" d="M135-150c-39-12-60 13-60 57V0H25l-1-190h47c2 13-1 29 3 40 6-28 27-53 61-41v41" id="Q"/><g id="a"><use transform="matrix(0.06172839506172839,0,0,0.06172839506172839,0,0)" xlink:href="#N"/><use transform="matrix(0.06172839506172839,0,0,0.06172839506172839,17.28395061728395,0)" xlink:href="#O"/><use transform="matrix(0.06172839506172839,0,0,0.06172839506172839,24.629629629629626,0)" xlink:href="#O"/><use transform="matrix(0.06172839506172839,0,0,0.06172839506172839,31.9753086419753,0)" xlink:href="#P"/><use transform="matrix(0.06172839506172839,0,0,0.06172839506172839,44.32098765432098,0)" xlink:href="#Q"/></g><path fill="#3a414a" d="M88-194c31-1 46 15 58 34l-1-101h50l1 261h-48c-2-10 0-23-3-31C134-8 116 4 84 4 32 4 16-41 15-95c0-56 19-97 73-99zm17 164c33 0 40-30 41-66 1-37-9-64-41-64s-38 30-39 65c0 43 13 65 39 65" id="R"/><path fill="#3a414a" d="M133-34C117-15 103 5 69 4 32 3 11-16 11-54c-1-60 55-63 116-61 1-26-3-47-28-47-18 1-26 9-28 27l-52-2c7-38 36-58 82-57s74 22 75 68l1 82c-1 14 12 18 25 15v27c-30 8-71 5-69-32zm-48 3c29 0 43-24 42-57-32 0-66-3-65 30 0 17 8 27 23 27" id="S"/><path fill="#3a414a" d="M115-3C79 11 28 4 28-45v-112H4v-33h27l15-45h31v45h36v33H77v99c-1 23 16 31 38 25v30" id="T"/><g id="b"><use transform="matrix(0.06172839506172839,0,0,0.06172839506172839,0,0)" xlink:href="#R"/><use transform="matrix(0.06172839506172839,0,0,0.06172839506172839,13.518518518518517,0)" xlink:href="#S"/><use transform="matrix(0.06172839506172839,0,0,0.06172839506172839,25.864197530864196,0)" xlink:href="#T"/><use transform="matrix(0.06172839506172839,0,0,0.06172839506172839,33.20987654320987,0)" xlink:href="#S"/></g><path fill="#3a414a" d="M16-82v-28h88v28H16" id="U"/><use transform="matrix(0.06172839506172839,0,0,0.06172839506172839,0,0)" xlink:href="#U" id="c"/><path fill="#3a414a" d="M33 0v-248h34V0H33" id="V"/><path fill="#3a414a" d="M30-248c118-7 216 8 213 122C240-48 200 0 122 0H30v-248zM63-27c89 8 146-16 146-99s-60-101-146-95v194" id="W"/><path fill="#3a414a" d="M33-154v-36h34v36H33zM33 0v-36h34V0H33" id="X"/><g id="d"><use transform="matrix(0.06172839506172839,0,0,0.06172839506172839,0,0)" xlink:href="#V"/><use transform="matrix(0.06172839506172839,0,0,0.06172839506172839,6.172839506172839,0)" xlink:href="#W"/><use transform="matrix(0.06172839506172839,0,0,0.06172839506172839,22.160493827160494,0)" xlink:href="#X"/></g><path fill="#3a414a" d="M50-231l6-30h32l-6 30H50zM6 0l37-190h31L37 0H6" id="Y"/><path fill="#3a414a" d="M133-28C103 26-5 8 13-77c13-62 24-115 90-117 29-1 46 15 56 35l19-102h32L160 0h-30zM45-64c-2 27 10 43 35 43 54-1 69-50 69-103 0-29-15-46-42-46-53-1-58 58-62 106" id="Z"/><path fill="#3a414a" d="M-28 44V31h207v13H-28" id="aa"/><path fill="#3a414a" d="M30-147c31-64 166-65 159 27C183-49 158 1 86 4 9 8 1-88 30-147zM88-20c53 0 68-48 68-100 0-31-11-51-44-50-52 1-68 46-68 97 0 32 13 53 44 53" id="ab"/><path fill="#3a414a" d="M76-167L44 0H12l33-167H18l4-23h27c3-47 25-81 82-69l-4 24c-35-8-44 15-46 45h37l-5 23H76" id="ac"/><path fill="#3a414a" d="M111-194c62-3 86 47 72 106H45c-7 38 6 69 45 68 27-1 43-14 53-32l24 11C152-15 129 4 87 4 38 3 12-23 12-71c0-70 32-119 99-123zm44 81c14-66-71-72-95-28-4 8-8 17-11 28h106" id="ad"/><path fill="#3a414a" d="M66-151c12-25 30-51 66-40l-6 26C45-176 58-65 38 0H6l36-190h30" id="ae"/><g id="e"><use transform="matrix(0.06172839506172839,0,0,0.06172839506172839,0,0)" xlink:href="#Y"/><use transform="matrix(0.06172839506172839,0,0,0.06172839506172839,4.876543209876543,0)" xlink:href="#Z"/><use transform="matrix(0.06172839506172839,0,0,0.06172839506172839,17.22222222222222,0)" xlink:href="#aa"/><use transform="matrix(0.06172839506172839,0,0,0.06172839506172839,29.5679012345679,0)" xlink:href="#ab"/><use transform="matrix(0.06172839506172839,0,0,0.06172839506172839,41.913580246913575,0)" xlink:href="#ac"/><use transform="matrix(0.06172839506172839,0,0,0.06172839506172839,48.08641975308642,0)" xlink:href="#ac"/><use transform="matrix(0.06172839506172839,0,0,0.06172839506172839,54.25925925925926,0)" xlink:href="#ad"/><use transform="matrix(0.06172839506172839,0,0,0.06172839506172839,66.60493827160494,0)" xlink:href="#ae"/></g><use transform="matrix(0.06172839506172839,0,0,0.06172839506172839,0,0)" xlink:href="#U" id="f"/><path fill="#3a414a" d="M127-220V0H93v-220H8v-28h204v28h-85" id="af"/><use transform="matrix(0.06172839506172839,0,0,0.06172839506172839,0,0)" xlink:href="#af" id="g"/><path fill="#3a414a" d="M18-150v-26h174v26H18zm0 90v-26h174v26H18" id="ag"/><use transform="matrix(0.06172839506172839,0,0,0.06172839506172839,0,0)" xlink:href="#ag" id="h"/><path fill="#3a414a" d="M101-251c82-7 93 87 43 132L82-64C71-53 59-42 53-27h129V0H18c2-99 128-94 128-182 0-28-16-43-45-43s-46 15-49 41l-32-3c6-41 34-60 81-64" id="ah"/><use transform="matrix(0.06172839506172839,0,0,0.06172839506172839,0,0)" xlink:href="#ah" id="i"/><path fill="#3a414a" d="M24-248c93 1 206-16 204 79-1 75-69 88-152 82V0H24v-248zm52 121c47 0 100 7 100-41 0-47-54-39-100-39v80" id="ai"/><path fill="#3a414a" d="M123 10C108 53 80 86 19 72V37c35 8 53-11 59-39L3-190h52l48 148c12-52 28-100 44-148h51" id="aj"/><path fill="#3a414a" d="M220-157c-53 9-28 100-34 157h-49v-107c1-27-5-49-29-50C55-147 81-57 75 0H25l-1-190h47c2 12-1 28 3 38 10-53 101-56 108 0 13-22 24-43 59-42 82 1 51 116 57 194h-49v-107c-1-25-5-48-29-50" id="ak"/><path fill="#3a414a" d="M135-194c87-1 58 113 63 194h-50c-7-57 23-157-34-157-59 0-34 97-39 157H25l-1-190h47c2 12-1 28 3 38 12-26 28-41 61-42" id="al"/><g id="k"><use transform="matrix(0.06172839506172839,0,0,0.06172839506172839,0,0)" xlink:href="#ai"/><use transform="matrix(0.06172839506172839,0,0,0.06172839506172839,14.814814814814813,0)" xlink:href="#S"/><use transform="matrix(0.06172839506172839,0,0,0.06172839506172839,27.160493827160494,0)" xlink:href="#aj"/><use transform="matrix(0.06172839506172839,0,0,0.06172839506172839,39.50617283950617,0)" xlink:href="#ak"/><use transform="matrix(0.06172839506172839,0,0,0.06172839506172839,59.25925925925925,0)" xlink:href="#P"/><use transform="matrix(0.06172839506172839,0,0,0.06172839506172839,71.60493827160494,0)" xlink:href="#al"/><use transform="matrix(0.06172839506172839,0,0,0.06172839506172839,85.12345679012346,0)" xlink:href="#T"/></g><path fill="#3a414a" d="M67-162c32-53 139-36 121 50C175-51 163 2 97 4 68 4 52-11 42-31 38 6 28 39 22 75H-9l50-265h29c-1 10 0 20-3 28zm89 36c0-26-10-43-35-43-54 0-67 50-69 103-1 29 14 45 42 46 53 0 62-58 62-106" id="am"/><path fill="#3a414a" d="M165-48c-4 18 1 34 23 27l-3 20c-29 8-62 0-52-35h-2C116-14 99 4 63 4 30 4 8-16 8-49c0-68 71-67 138-67 10-26 0-56-31-54-26 1-42 9-47 31l-32-5c8-67 160-71 144 15-5 28-9 54-15 81zM42-50c3 52 80 24 89-6 7-12 7-24 11-38-47 1-103-4-100 44" id="an"/><path fill="#3a414a" d="M198-190L69 30C53 58 25 83-20 72c4-11-1-27 19-22 33-1 43-29 59-52L20-190h32L79-34l84-156h35" id="ao"/><path fill="#3a414a" d="M248-111c6-24 9-61-24-58-72 9-57 108-77 169h-31l26-142c3-37-50-30-64-10C52-115 50-51 37 0H6l36-190h30c-1 10-6 24-4 32 13-43 101-52 105 5 13-22 29-41 61-41 90 0 28 129 23 194h-31" id="ap"/><path fill="#3a414a" d="M67-158c22-48 132-52 116 29L158 0h-32l25-140c3-38-53-32-70-12C52-117 51-52 38 0H6l36-190h30" id="aq"/><path fill="#3a414a" d="M51-54c-9 22 5 41 31 30L79-1C43 14 10-4 19-52l22-115H19l5-23h22l19-43h21l-9 43h35l-4 23H73" id="ar"/><g id="l"><use transform="matrix(0.06172839506172839,0,0,0.06172839506172839,0,0)" xlink:href="#Y"/><use transform="matrix(0.06172839506172839,0,0,0.06172839506172839,4.876543209876543,0)" xlink:href="#Z"/><use transform="matrix(0.06172839506172839,0,0,0.06172839506172839,17.22222222222222,0)" xlink:href="#aa"/><use transform="matrix(0.06172839506172839,0,0,0.06172839506172839,29.5679012345679,0)" xlink:href="#am"/><use transform="matrix(0.06172839506172839,0,0,0.06172839506172839,41.913580246913575,0)" xlink:href="#an"/><use transform="matrix(0.06172839506172839,0,0,0.06172839506172839,54.25925925925925,0)" xlink:href="#ao"/><use transform="matrix(0.06172839506172839,0,0,0.06172839506172839,65.37037037037037,0)" xlink:href="#ap"/><use transform="matrix(0.06172839506172839,0,0,0.06172839506172839,83.82716049382715,0)" xlink:href="#ad"/><use transform="matrix(0.06172839506172839,0,0,0.06172839506172839,96.17283950617283,0)" xlink:href="#aq"/><use transform="matrix(0.06172839506172839,0,0,0.06172839506172839,108.51851851851852,0)" xlink:href="#ar"/></g><path fill="#3a414a" d="M199 0l-22-63H83L61 0H9l90-248h61L250 0h-51zm-33-102l-36-108c-10 38-24 72-36 108h72" id="as"/><path fill="#3a414a" d="M195-6C206 82 75 100 31 46c-4-6-6-13-8-21l49-6c3 16 16 24 34 25 40 0 42-37 40-79-11 22-30 35-61 35-53 0-70-43-70-97 0-56 18-96 73-97 30 0 46 14 59 34l2-30h47zm-90-29c32 0 41-27 41-63 0-35-9-62-40-62-32 0-39 29-40 63 0 36 9 62 39 62" id="at"/><g id="m"><use transform="matrix(0.00617283950617284,0,0,0.00617283950617284,0,0)" xlink:href="#as"/><use transform="matrix(0.00617283950617284,0,0,0.00617283950617284,1.5987654320987656,0)" xlink:href="#at"/><use transform="matrix(0.00617283950617284,0,0,0.00617283950617284,2.9506172839506175,0)" xlink:href="#at"/><use transform="matrix(0.00617283950617284,0,0,0.00617283950617284,4.302469135802469,0)" xlink:href="#Q"/><use transform="matrix(0.00617283950617284,0,0,0.00617283950617284,5.166666666666667,0)" xlink:href="#P"/><use transform="matrix(0.00617283950617284,0,0,0.00617283950617284,6.401234567901235,0)" xlink:href="#at"/><use transform="matrix(0.00617283950617284,0,0,0.00617283950617284,7.753086419753087,0)" xlink:href="#S"/><use transform="matrix(0.00617283950617284,0,0,0.00617283950617284,8.987654320987655,0)" xlink:href="#T"/><use transform="matrix(0.00617283950617284,0,0,0.00617283950617284,9.722222222222223,0)" xlink:href="#P"/></g><path fill="#3a414a" d="M62-168c30 0 50 19 50 48S92-70 62-70c-29 0-48-21-48-50s20-48 48-48" id="au"/><use transform="matrix(0.00617283950617284,0,0,0.00617283950617284,0,0)" xlink:href="#au" id="n"/><path fill="#3a414a" d="M205 0l-28-72H64L36 0H1l101-248h38L239 0h-34zm-38-99l-47-123c-12 45-31 82-46 123h93" id="av"/><path fill="#3a414a" d="M177-190C167-65 218 103 67 71c-23-6-38-20-44-43l32-5c15 47 100 32 89-28v-30C133-14 115 1 83 1 29 1 15-40 15-95c0-56 16-97 71-98 29-1 48 16 59 35 1-10 0-23 2-32h30zM94-22c36 0 50-32 50-73 0-42-14-75-50-75-39 0-46 34-46 75s6 73 46 73" id="aw"/><path fill="#3a414a" d="M114-163C36-179 61-72 57 0H25l-1-190h30c1 12-1 29 2 39 6-27 23-49 58-41v29" id="ax"/><path fill="#3a414a" d="M100-194c63 0 86 42 84 106H49c0 40 14 67 53 68 26 1 43-12 49-29l28 8c-11 28-37 45-77 45C44 4 14-33 15-96c1-61 26-98 85-98zm52 81c6-60-76-77-97-28-3 7-6 17-6 28h103" id="ay"/><path fill="#3a414a" d="M141-36C126-15 110 5 73 4 37 3 15-17 15-53c-1-64 63-63 125-63 3-35-9-54-41-54-24 1-41 7-42 31l-33-3c5-37 33-52 76-52 45 0 72 20 72 64v82c-1 20 7 32 28 27v20c-31 9-61-2-59-35zM48-53c0 20 12 33 32 33 41-3 63-29 60-74-43 2-92-5-92 41" id="az"/><path fill="#3a414a" d="M59-47c-2 24 18 29 38 22v24C64 9 27 4 27-40v-127H5v-23h24l9-43h21v43h35v23H59v120" id="aA"/><path fill="#3a414a" d="M24-231v-30h32v30H24zM24 0v-190h32V0H24" id="aB"/><path fill="#3a414a" d="M117-194c89-4 53 116 60 194h-32v-121c0-31-8-49-39-48C34-167 62-67 57 0H25l-1-190h30c1 10-1 24 2 32 11-22 29-35 61-36" id="aC"/><g id="o"><use transform="matrix(0.00617283950617284,0,0,0.00617283950617284,0,0)" xlink:href="#av"/><use transform="matrix(0.00617283950617284,0,0,0.00617283950617284,1.4814814814814816,0)" xlink:href="#aw"/><use transform="matrix(0.00617283950617284,0,0,0.00617283950617284,2.71604938271605,0)" xlink:href="#aw"/><use transform="matrix(0.00617283950617284,0,0,0.00617283950617284,3.9506172839506175,0)" xlink:href="#ax"/><use transform="matrix(0.00617283950617284,0,0,0.00617283950617284,4.685185185185186,0)" xlink:href="#ay"/><use transform="matrix(0.00617283950617284,0,0,0.00617283950617284,5.919753086419754,0)" xlink:href="#aw"/><use transform="matrix(0.00617283950617284,0,0,0.00617283950617284,7.154320987654321,0)" xlink:href="#az"/><use transform="matrix(0.00617283950617284,0,0,0.00617283950617284,8.38888888888889,0)" xlink:href="#aA"/><use transform="matrix(0.00617283950617284,0,0,0.00617283950617284,9.006172839506174,0)" xlink:href="#aB"/><use transform="matrix(0.00617283950617284,0,0,0.00617283950617284,9.49382716049383,0)" xlink:href="#aC"/><use transform="matrix(0.00617283950617284,0,0,0.00617283950617284,10.728395061728397,0)" xlink:href="#aw"/></g><g id="p"><use transform="matrix(0.00617283950617284,0,0,0.00617283950617284,0,0)" xlink:href="#az"/><use transform="matrix(0.00617283950617284,0,0,0.00617283950617284,1.234567901234568,0)" xlink:href="#aA"/></g><path fill="#3a414a" d="M106-169C34-169 62-67 57 0H25v-261h32l-1 103c12-21 28-36 61-36 89 0 53 116 60 194h-32v-121c2-32-8-49-39-48" id="aD"/><g id="q"><use transform="matrix(0.00617283950617284,0,0,0.00617283950617284,0,0)" xlink:href="#aA"/><use transform="matrix(0.00617283950617284,0,0,0.00617283950617284,0.617283950617284,0)" xlink:href="#aD"/><use transform="matrix(0.00617283950617284,0,0,0.00617283950617284,1.851851851851852,0)" xlink:href="#ay"/></g><path fill="#3a414a" d="M100-194c62-1 85 37 85 99 1 63-27 99-86 99S16-35 15-95c0-66 28-99 85-99zM99-20c44 1 53-31 53-75 0-43-8-75-51-75s-53 32-53 75 10 74 51 75" id="aE"/><path fill="#3a414a" d="M101-234c-31-9-42 10-38 44h38v23H63V0H32v-167H5v-23h27c-7-52 17-82 69-68v24" id="aF"/><g id="r"><use transform="matrix(0.00617283950617284,0,0,0.00617283950617284,0,0)" xlink:href="#aE"/><use transform="matrix(0.00617283950617284,0,0,0.00617283950617284,1.234567901234568,0)" xlink:href="#aF"/><use transform="matrix(0.00617283950617284,0,0,0.00617283950617284,1.8086419753086422,0)" xlink:href="#aF"/><use transform="matrix(0.00617283950617284,0,0,0.00617283950617284,2.4259259259259265,0)" xlink:href="#ay"/><use transform="matrix(0.00617283950617284,0,0,0.00617283950617284,3.660493827160495,0)" xlink:href="#ax"/></g><path fill="#3a414a" d="M24 0v-261h32V0H24" id="aG"/><path fill="#3a414a" d="M108 0H70L1-190h34L89-25l56-165h34" id="aH"/><g id="s"><use transform="matrix(0.00617283950617284,0,0,0.00617283950617284,0,0)" xlink:href="#aG"/><use transform="matrix(0.00617283950617284,0,0,0.00617283950617284,0.4876543209876544,0)" xlink:href="#ay"/><use transform="matrix(0.00617283950617284,0,0,0.00617283950617284,1.7222222222222223,0)" xlink:href="#aH"/><use transform="matrix(0.00617283950617284,0,0,0.00617283950617284,2.8333333333333335,0)" xlink:href="#ay"/><use transform="matrix(0.00617283950617284,0,0,0.00617283950617284,4.067901234567902,0)" xlink:href="#aG"/></g><path fill="#3a414a" d="M160-131c35 5 61 23 61 61C221 17 115-2 30 0v-248c76 3 177-17 177 60 0 33-19 50-47 57zm-97-11c50-1 110 9 110-42 0-47-63-36-110-37v79zm0 115c55-2 124 14 124-45 0-56-70-42-124-44v89" id="aI"/><path fill="#3a414a" d="M179-190L93 31C79 59 56 82 12 73V49c39 6 53-20 64-50L1-190h34L92-34l54-156h33" id="aJ"/><g id="t"><use transform="matrix(0.00617283950617284,0,0,0.00617283950617284,0,0)" xlink:href="#aI"/><use transform="matrix(0.00617283950617284,0,0,0.00617283950617284,1.4814814814814816,0)" xlink:href="#aJ"/><use transform="matrix(0.00617283950617284,0,0,0.00617283950617284,2.5925925925925926,0)" xlink:href="#X"/></g><g id="u"><use transform="matrix(0.00617283950617284,0,0,0.00617283950617284,0,0)" xlink:href="#Y"/><use transform="matrix(0.00617283950617284,0,0,0.00617283950617284,0.4876543209876544,0)" xlink:href="#Z"/><use transform="matrix(0.00617283950617284,0,0,0.00617283950617284,1.7222222222222223,0)" xlink:href="#aa"/><use transform="matrix(0.00617283950617284,0,0,0.00617283950617284,2.9567901234567904,0)" xlink:href="#ar"/><use transform="matrix(0.00617283950617284,0,0,0.00617283950617284,3.5740740740740744,0)" xlink:href="#ad"/><use transform="matrix(0.00617283950617284,0,0,0.00617283950617284,4.8086419753086425,0)" xlink:href="#aq"/><use transform="matrix(0.00617283950617284,0,0,0.00617283950617284,6.0432098765432105,0)" xlink:href="#Z"/><use transform="matrix(0.00617283950617284,0,0,0.00617283950617284,7.277777777777779,0)" xlink:href="#ad"/><use transform="matrix(0.00617283950617284,0,0,0.00617283950617284,8.512345679012347,0)" xlink:href="#ae"/></g><path fill="#3a414a" d="M67 3c-93-2-31-127-26-193h32L48-50c-3 39 53 32 70 12 30-34 30-101 43-152h32L157 0h-30c1-10 6-24 4-33-14 20-29 37-64 36" id="aK"/><path fill="#3a414a" d="M44-68c0 29 11 47 38 47 30 0 42-19 51-41l28 9C148-21 126 4 82 4 31 4 10-29 12-85c3-77 74-140 146-93 12 8 15 23 18 40l-31 5c-1-22-13-36-36-36-52 0-65 49-65 101" id="aL"/><path fill="#3a414a" d="M67-158c15-20 31-36 64-36 94 0 33 127 27 194h-32l25-140c3-38-53-32-70-12C52-117 51-51 37 0H6l51-261h31" id="aM"/><path fill="#3a414a" d="M55-144c13 50 104 24 104 88C159 21 15 23 1-39l26-10c6 40 102 42 102-4-13-50-104-23-104-87 0-71 143-71 148-8l-29 4c-5-35-85-37-89 0" id="aN"/><g id="v"><use transform="matrix(0.00617283950617284,0,0,0.00617283950617284,0,0)" xlink:href="#Y"/><use transform="matrix(0.00617283950617284,0,0,0.00617283950617284,0.4876543209876544,0)" xlink:href="#Z"/><use transform="matrix(0.00617283950617284,0,0,0.00617283950617284,1.7222222222222223,0)" xlink:href="#aa"/><use transform="matrix(0.00617283950617284,0,0,0.00617283950617284,2.9567901234567904,0)" xlink:href="#am"/><use transform="matrix(0.00617283950617284,0,0,0.00617283950617284,4.191358024691358,0)" xlink:href="#aK"/><use transform="matrix(0.00617283950617284,0,0,0.00617283950617284,5.4259259259259265,0)" xlink:href="#ae"/><use transform="matrix(0.00617283950617284,0,0,0.00617283950617284,6.1604938271604945,0)" xlink:href="#aL"/><use transform="matrix(0.00617283950617284,0,0,0.00617283950617284,7.271604938271605,0)" xlink:href="#aM"/><use transform="matrix(0.00617283950617284,0,0,0.00617283950617284,8.506172839506174,0)" xlink:href="#an"/><use transform="matrix(0.00617283950617284,0,0,0.00617283950617284,9.740740740740742,0)" xlink:href="#aN"/><use transform="matrix(0.00617283950617284,0,0,0.00617283950617284,10.851851851851853,0)" xlink:href="#ad"/></g><g id="w"><use transform="matrix(0.00617283950617284,0,0,0.00617283950617284,0,0)" xlink:href="#Y"/><use transform="matrix(0.00617283950617284,0,0,0.00617283950617284,0.4876543209876544,0)" xlink:href="#Z"/><use transform="matrix(0.00617283950617284,0,0,0.00617283950617284,1.7222222222222223,0)" xlink:href="#aa"/><use transform="matrix(0.00617283950617284,0,0,0.00617283950617284,2.9567901234567904,0)" xlink:href="#am"/><use transform="matrix(0.00617283950617284,0,0,0.00617283950617284,4.191358024691358,0)" xlink:href="#aK"/><use transform="matrix(0.00617283950617284,0,0,0.00617283950617284,5.4259259259259265,0)" xlink:href="#ae"/><use transform="matrix(0.00617283950617284,0,0,0.00617283950617284,6.1604938271604945,0)" xlink:href="#aL"/><use transform="matrix(0.00617283950617284,0,0,0.00617283950617284,7.271604938271605,0)" xlink:href="#aM"/><use transform="matrix(0.00617283950617284,0,0,0.00617283950617284,8.506172839506174,0)" xlink:href="#an"/><use transform="matrix(0.00617283950617284,0,0,0.00617283950617284,9.740740740740742,0)" xlink:href="#aN"/><use transform="matrix(0.00617283950617284,0,0,0.00617283950617284,10.851851851851853,0)" xlink:href="#ad"/></g><path fill="#3a414a" d="M230 0l2-204L168 0h-37L68-204 70 0H24v-248h70l56 185 57-185h69V0h-46" id="aO"/><g id="x"><use transform="matrix(0.00617283950617284,0,0,0.00617283950617284,0,0)" xlink:href="#aO"/><use transform="matrix(0.00617283950617284,0,0,0.00617283950617284,1.8456790123456792,0)" xlink:href="#P"/><use transform="matrix(0.00617283950617284,0,0,0.00617283950617284,3.0802469135802473,0)" xlink:href="#Q"/><use transform="matrix(0.00617283950617284,0,0,0.00617283950617284,3.9444444444444446,0)" xlink:href="#at"/><use transform="matrix(0.00617283950617284,0,0,0.00617283950617284,5.296296296296297,0)" xlink:href="#P"/></g><path fill="#3a414a" d="M14-72v-43h91v43H14" id="aP"/><use transform="matrix(0.00617283950617284,0,0,0.00617283950617284,0,0)" xlink:href="#aP" id="y"/><path fill="#3a414a" d="M23 0v-37h61v-169l-59 37v-38l62-41h46v211h57V0H23" id="aQ"/><path fill="#3a414a" d="M35-132v-50h50v50H35zM35 0v-49h50V0H35" id="aR"/><g id="z"><use transform="matrix(0.00617283950617284,0,0,0.00617283950617284,0,0)" xlink:href="#aQ"/><use transform="matrix(0.00617283950617284,0,0,0.00617283950617284,1.234567901234568,0)" xlink:href="#aR"/><use transform="matrix(0.00617283950617284,0,0,0.00617283950617284,1.9691358024691359,0)" xlink:href="#aQ"/></g><path fill="#3a414a" d="M240 0l2-218c-23 76-54 145-80 218h-23L58-218 59 0H30v-248h44l77 211c21-75 51-140 76-211h43V0h-30" id="aS"/><g id="A"><use transform="matrix(0.00617283950617284,0,0,0.00617283950617284,0,0)" xlink:href="#aS"/><use transform="matrix(0.00617283950617284,0,0,0.00617283950617284,1.8456790123456792,0)" xlink:href="#ay"/><use transform="matrix(0.00617283950617284,0,0,0.00617283950617284,3.0802469135802473,0)" xlink:href="#ax"/><use transform="matrix(0.00617283950617284,0,0,0.00617283950617284,3.8148148148148153,0)" xlink:href="#aw"/><use transform="matrix(0.00617283950617284,0,0,0.00617283950617284,5.049382716049383,0)" xlink:href="#ay"/></g><g id="B"><use transform="matrix(0.00617283950617284,0,0,0.00617283950617284,0,0)" xlink:href="#aE"/><use transform="matrix(0.00617283950617284,0,0,0.00617283950617284,1.234567901234568,0)" xlink:href="#aC"/></g><path fill="#3a414a" d="M85-194c31 0 48 13 60 33l-1-100h32l1 261h-30c-2-10 0-23-3-31C134-8 116 4 85 4 32 4 16-35 15-94c0-66 23-100 70-100zm9 24c-40 0-46 34-46 75 0 40 6 74 45 74 42 0 51-32 51-76 0-42-9-74-50-73" id="aT"/><path fill="#3a414a" d="M-5 72V49h209v23H-5" id="aU"/><path fill="#3a414a" d="M115-194c55 1 70 41 70 98S169 2 115 4C84 4 66-9 55-30l1 105H24l-1-265h31l2 30c10-21 28-34 59-34zm-8 174c40 0 45-34 45-75s-6-73-45-74c-42 0-51 32-51 76 0 43 10 73 51 73" id="aV"/><path fill="#3a414a" d="M84 4C-5 8 30-112 23-190h32v120c0 31 7 50 39 49 72-2 45-101 50-169h31l1 190h-30c-1-10 1-25-2-33-11 22-28 36-60 37" id="aW"/><path fill="#3a414a" d="M96-169c-40 0-48 33-48 73s9 75 48 75c24 0 41-14 43-38l32 2c-6 37-31 61-74 61-59 0-76-41-82-99-10-93 101-131 147-64 4 7 5 14 7 22l-32 3c-4-21-16-35-41-35" id="aX"/><path fill="#3a414a" d="M135-143c-3-34-86-38-87 0 15 53 115 12 119 90S17 21 10-45l28-5c4 36 97 45 98 0-10-56-113-15-118-90-4-57 82-63 122-42 12 7 21 19 24 35" id="aY"/><g id="C"><use transform="matrix(0.00617283950617284,0,0,0.00617283950617284,0,0)" xlink:href="#aB"/><use transform="matrix(0.00617283950617284,0,0,0.00617283950617284,0.4876543209876544,0)" xlink:href="#aT"/><use transform="matrix(0.00617283950617284,0,0,0.00617283950617284,1.7222222222222223,0)" xlink:href="#aU"/><use transform="matrix(0.00617283950617284,0,0,0.00617283950617284,2.9567901234567904,0)" xlink:href="#aV"/><use transform="matrix(0.00617283950617284,0,0,0.00617283950617284,4.191358024691358,0)" xlink:href="#aW"/><use transform="matrix(0.00617283950617284,0,0,0.00617283950617284,5.4259259259259265,0)" xlink:href="#ax"/><use transform="matrix(0.00617283950617284,0,0,0.00617283950617284,6.1604938271604945,0)" xlink:href="#aX"/><use transform="matrix(0.00617283950617284,0,0,0.00617283950617284,7.271604938271605,0)" xlink:href="#aD"/><use transform="matrix(0.00617283950617284,0,0,0.00617283950617284,8.506172839506174,0)" xlink:href="#az"/><use transform="matrix(0.00617283950617284,0,0,0.00617283950617284,9.740740740740742,0)" xlink:href="#aY"/><use transform="matrix(0.00617283950617284,0,0,0.00617283950617284,10.851851851851853,0)" xlink:href="#ay"/></g><path fill="#3a414a" d="M85 4C-2 5 27-109 22-190h50c7 57-23 150 33 157 60-5 35-97 40-157h50l1 190h-47c-2-12 1-28-3-38-12 25-28 42-61 42" id="aZ"/><path fill="#3a414a" d="M190-63c-7 42-38 67-86 67-59 0-84-38-90-98-12-110 154-137 174-36l-49 2c-2-19-15-32-35-32-30 0-35 28-38 64-6 74 65 87 74 30" id="ba"/><path fill="#3a414a" d="M114-157C55-157 80-60 75 0H25v-261h50l-1 109c12-26 28-41 61-42 86-1 58 113 63 194h-50c-7-57 23-157-34-157" id="bb"/><path fill="#3a414a" d="M137-138c1-29-70-34-71-4 15 46 118 7 119 86 1 83-164 76-172 9l43-7c4 19 20 25 44 25 33 8 57-30 24-41C81-84 22-81 20-136c-2-80 154-74 161-7" id="bc"/><g id="D"><use transform="matrix(0.00617283950617284,0,0,0.00617283950617284,0,0)" xlink:href="#ai"/><use transform="matrix(0.00617283950617284,0,0,0.00617283950617284,1.4814814814814816,0)" xlink:href="#aZ"/><use transform="matrix(0.00617283950617284,0,0,0.00617283950617284,2.8333333333333335,0)" xlink:href="#Q"/><use transform="matrix(0.00617283950617284,0,0,0.00617283950617284,3.6975308641975313,0)" xlink:href="#ba"/><use transform="matrix(0.00617283950617284,0,0,0.00617283950617284,4.932098765432099,0)" xlink:href="#bb"/><use transform="matrix(0.00617283950617284,0,0,0.00617283950617284,6.283950617283951,0)" xlink:href="#S"/><use transform="matrix(0.00617283950617284,0,0,0.00617283950617284,7.518518518518519,0)" xlink:href="#bc"/><use transform="matrix(0.00617283950617284,0,0,0.00617283950617284,8.753086419753087,0)" xlink:href="#P"/></g><g id="E"><use transform="matrix(0.00617283950617284,0,0,0.00617283950617284,0,0)" xlink:href="#R"/><use transform="matrix(0.00617283950617284,0,0,0.00617283950617284,1.3518518518518519,0)" xlink:href="#S"/><use transform="matrix(0.00617283950617284,0,0,0.00617283950617284,2.58641975308642,0)" xlink:href="#T"/><use transform="matrix(0.00617283950617284,0,0,0.00617283950617284,3.3209876543209877,0)" xlink:href="#S"/></g><use transform="matrix(0.00617283950617284,0,0,0.00617283950617284,0,0)" xlink:href="#U" id="F"/><g id="G"><use transform="matrix(0.00617283950617284,0,0,0.00617283950617284,0,0)" xlink:href="#V"/><use transform="matrix(0.00617283950617284,0,0,0.00617283950617284,0.617283950617284,0)" xlink:href="#W"/><use transform="matrix(0.00617283950617284,0,0,0.00617283950617284,2.21604938271605,0)" xlink:href="#X"/></g><g id="H"><use transform="matrix(0.00617283950617284,0,0,0.00617283950617284,0,0)" xlink:href="#Y"/><use transform="matrix(0.00617283950617284,0,0,0.00617283950617284,0.4876543209876544,0)" xlink:href="#Z"/><use transform="matrix(0.00617283950617284,0,0,0.00617283950617284,1.7222222222222223,0)" xlink:href="#aa"/><use transform="matrix(0.00617283950617284,0,0,0.00617283950617284,2.9567901234567904,0)" xlink:href="#am"/><use transform="matrix(0.00617283950617284,0,0,0.00617283950617284,4.191358024691358,0)" xlink:href="#aK"/><use transform="matrix(0.00617283950617284,0,0,0.00617283950617284,5.4259259259259265,0)" xlink:href="#ae"/><use transform="matrix(0.00617283950617284,0,0,0.00617283950617284,6.1604938271604945,0)" xlink:href="#aL"/><use transform="matrix(0.00617283950617284,0,0,0.00617283950617284,7.271604938271605,0)" xlink:href="#aM"/><use transform="matrix(0.00617283950617284,0,0,0.00617283950617284,8.506172839506174,0)" xlink:href="#an"/><use transform="matrix(0.00617283950617284,0,0,0.00617283950617284,9.740740740740742,0)" xlink:href="#aN"/><use transform="matrix(0.00617283950617284,0,0,0.00617283950617284,10.851851851851853,0)" xlink:href="#ad"/></g><use transform="matrix(0.00617283950617284,0,0,0.00617283950617284,0,0)" xlink:href="#U" id="I"/><use transform="matrix(0.00617283950617284,0,0,0.00617283950617284,0,0)" xlink:href="#af" id="J"/><use transform="matrix(0.00617283950617284,0,0,0.00617283950617284,0,0)" xlink:href="#ag" id="K"/><use transform="matrix(0.00617283950617284,0,0,0.00617283950617284,0,0)" xlink:href="#ah" id="L"/></defs></g></svg>